<svg xmlns="http://www.w3.org/2000/svg" xml:space="preserve" width="124.446" height="124.446" viewBox="0 0 31.112 31.112"><path d="M32 39.273s-.636-3.97-1.97-5.304C28.697 32.636 24.726 32 24.726 32s3.97-.636 5.304-1.97c1.334-1.333 1.97-5.304 1.97-5.304s.636 3.97 1.97 5.304c1.333 1.334 5.304 1.97 5.304 1.97s-3.971.635-5.305 1.97C32.636 35.302 32 39.272 32 39.272M26.521 17.39h10.958a9.11 9.11 0 0 1 9.132 9.132v10.958a9.11 9.11 0 0 1-9.132 9.132H26.521a9.11 9.11 0 0 1-9.132-9.133V26.521a9.11 9.11 0 0 1 9.132-9.132" style="fill:none;stroke:currentColor;stroke-width:1.88976;stroke-linecap:round;stroke-linejoin:round;stroke-miterlimit:1;stroke-dasharray:none;stroke-dashoffset:3401.57;paint-order:markers stroke fill" transform="translate(-16.444 -16.444)"/></svg>