<svg xmlns="http://www.w3.org/2000/svg" xml:space="preserve" width="124.446" height="124.446" viewBox="0 0 31.112 31.112"><path d="M38.379 25.616a2.856 2.856 0 1 1-4.04 4.038 2.856 2.856 0 0 1 4.04-4.038m.08 8.647a2.856 2.856 0 1 1-4.04 4.038 2.856 2.856 0 0 1 4.04-4.037m-8.722-8.723a2.856 2.856 0 1 1-4.04 4.038 2.856 2.856 0 0 1 4.04-4.038m-.082 8.799a2.856 2.856 0 1 1-4.04 4.037 2.856 2.856 0 0 1 4.04-4.037m-3.134-16.95h10.958a9.11 9.11 0 0 1 9.132 9.131v10.958a9.11 9.11 0 0 1-9.132 9.132H26.521a9.11 9.11 0 0 1-9.132-9.133V26.521a9.11 9.11 0 0 1 9.132-9.132" style="fill:none;stroke:currentColor;stroke-width:1.88975;stroke-linecap:round;stroke-linejoin:round;stroke-miterlimit:1;stroke-dashoffset:3401.57;paint-order:markers stroke fill" transform="translate(-16.444 -16.444)"/></svg>