<svg xmlns="http://www.w3.org/2000/svg" xml:space="preserve" width="124.447" height="124.451" viewBox="0 0 31.112 31.113"><path d="M41.147 25.232a2.447 2.447 0 0 1-2.448 2.447 2.447 2.447 0 0 1-2.447-2.447 2.447 2.447 0 0 1 2.447-2.448 2.447 2.447 0 0 1 2.448 2.448zm-21.87 17.34S26.553 31.686 32 31.999c5.447.314 11.942 11.943 11.942 11.943M26.521 17.39h10.958a9.11 9.11 0 0 1 9.132 9.132V37.48a9.11 9.11 0 0 1-9.132 9.132H26.521a9.11 9.11 0 0 1-9.132-9.133V26.522a9.11 9.11 0 0 1 9.132-9.132z" style="fill:none;stroke:currentColor;stroke-width:1.88976;stroke-linejoin:round;stroke-miterlimit:0;stroke-dasharray:none;stroke-dashoffset:3401.57;paint-order:stroke fill markers" transform="translate(-16.444 -16.444)"/></svg>