<svg xmlns="http://www.w3.org/2000/svg" xml:space="preserve" width="47.008" height="52.836" viewBox="0 0 11.752 13.209"><path d="M32 29.646v4.708" style="fill:none;fill-opacity:.666949;stroke:#e6712b;stroke-width:1.88976;stroke-linecap:round;stroke-linejoin:round;stroke-miterlimit:1;stroke-dasharray:none;stroke-dashoffset:3401.57;stroke-opacity:1;paint-order:markers stroke fill" transform="translate(-26.124 -25.396)"/><path d="M31.296 38.604q1.92 0 3.215-.797c.747-.445 1.296-1.08 1.67-1.886v2.559h1.695V25.396h-1.77v6.679q0 2.318-1.17 3.564-1.173 1.27-3.24 1.27a.8.8 0 0 1-.2-.024h-.2zm1.408-13.208q-1.92 0-3.215.797c-.747.445-1.296 1.08-1.67 1.886V25.52h-1.695v13.084h1.77v-6.679q0-2.317 1.17-3.564 1.173-1.27 3.24-1.27.1 0 .2.024h.2z" style="font-size:24.9231px;font-family:Montserrat;-inkscape-font-specification:Montserrat;fill:#e6712b;fill-opacity:1;stroke-width:.551939;stroke-linecap:round;stroke-linejoin:round;stroke-miterlimit:1;stroke-dashoffset:3401.57;paint-order:markers stroke fill" transform="translate(-26.124 -25.396)"/></svg>