<svg xmlns="http://www.w3.org/2000/svg" xml:space="preserve" width="186.688" height="26.067" viewBox="0 0 46.672 6.517"><defs><filter id="b" width="1.022" height="1.251" x="-.011" y="-.126" style="color-interpolation-filters:sRGB"><feGaussianBlur result="blur" stdDeviation="0.2 0.2"/></filter><filter id="a" width="1.066" height="1.792" x="-.033" y="-.396" style="color-interpolation-filters:sRGB"><feGaussianBlur result="blur" stdDeviation="0.6 0.6"/></filter></defs><path d="M23.336 1.44C14.159 1.445 5.74 2.843 1.44 5.077c5.988-1.274 13.793-2.292 21.896-2.298 8.103.006 15.908 1.024 21.896 2.298-4.3-2.234-12.72-3.632-21.896-3.637" style="fill:#e6712b;fill-opacity:1;stroke:none;stroke-width:1.56585;stroke-linecap:round;stroke-linejoin:round;stroke-miterlimit:1;stroke-dashoffset:3401.57;paint-order:markers stroke fill;filter:url(#a)"/><path d="M23.336 1.254c-9.177 0-17.596 1.59-21.896 3.823 4.318-2.14 13.793-3.159 21.896-3.164 8.103.005 17.516 1.085 21.896 3.164-4.3-2.234-12.72-3.823-21.896-3.823" style="fill:#f8e12e;fill-opacity:1;stroke:none;stroke-width:1.56585;stroke-linecap:round;stroke-linejoin:round;stroke-miterlimit:1;stroke-dashoffset:3401.57;paint-order:markers stroke fill;filter:url(#b)"/></svg>